<svg width="200" height="200" viewBox="0 0 200 200" fill="none" xmlns="http://www.w3.org/2000/svg">
<path d="M196.232 91.0933L108.909 3.77567C107.712 2.57869 106.292 1.62914 104.729 0.981296C103.165 0.33345 101.49 0 99.7976 0C98.1053 0 96.4297 0.33345 94.8664 0.981296C93.3031 1.62914 91.8827 2.57869 90.6865 3.77567L72.5602 21.9109L95.5577 44.9086C98.2614 43.9903 101.168 43.847 103.949 44.4947C106.73 45.1425 109.274 46.5555 111.294 48.5739C113.325 50.607 114.743 53.1707 115.385 55.9717C116.028 58.7727 115.869 61.6979 114.927 64.4129L137.099 86.5791C139.815 85.6359 142.741 85.477 145.543 86.1207C148.345 86.7644 150.909 88.1845 152.94 90.2183C154.363 91.6413 155.492 93.3306 156.263 95.1899C157.033 97.0491 157.429 99.0419 157.429 101.054C157.429 103.067 157.033 105.06 156.263 106.919C155.492 108.778 154.363 110.468 152.94 111.891C150.063 114.765 146.162 116.379 142.096 116.379C138.029 116.379 134.128 114.765 131.251 111.891C129.113 109.75 127.657 107.024 127.065 104.057C126.474 101.091 126.773 98.0151 127.925 95.2179L107.248 74.547V128.955C109.43 130.033 111.325 131.616 112.774 133.571C114.223 135.527 115.185 137.8 115.581 140.202C115.976 142.604 115.794 145.066 115.049 147.383C114.304 149.701 113.018 151.807 111.296 153.528C109.873 154.952 108.184 156.081 106.325 156.851C104.466 157.621 102.473 158.017 100.46 158.017C98.4479 158.017 96.4551 157.621 94.5958 156.851C92.7366 156.081 91.0473 154.952 89.6244 153.528C88.2009 152.105 87.0717 150.416 86.3013 148.556C85.5308 146.697 85.1343 144.704 85.1343 142.691C85.1343 140.678 85.5308 138.685 86.3013 136.826C87.0717 134.966 88.2009 133.277 89.6244 131.854C91.0583 130.417 92.7627 129.279 94.6392 128.504V73.5958C92.7704 72.8261 91.0721 71.6947 89.6419 70.2667C88.2117 68.8386 87.0778 67.1421 86.3052 65.2745C85.5326 63.4069 85.1366 61.4051 85.1399 59.384C85.1433 57.3629 85.5459 55.3624 86.3247 53.4973L63.6495 30.8174L3.76823 90.6841C1.35522 93.1019 0 96.3783 0 99.7942C0 103.21 1.35522 106.486 3.76823 108.904L91.0957 196.233C93.5134 198.645 96.7893 200 100.205 200C103.62 200 106.896 198.645 109.313 196.233L196.232 109.313C198.645 106.896 200 103.619 200 100.203C200 96.7875 198.645 93.5111 196.232 91.0933Z" fill="#FFFAF5"/>
</svg>
