<svg width="200" height="200" viewBox="0 0 200 200" fill="none" xmlns="http://www.w3.org/2000/svg">
<path d="M84.5702 146.187C58.789 142.961 40.625 123.805 40.625 99.0041C40.625 88.9222 44.1406 78.0338 50 70.7748C47.4608 64.1207 47.8515 50.0061 50.7812 44.1587C58.5937 43.1504 69.1406 47.3849 75.3906 53.2323C82.8125 50.8126 90.625 49.6028 100.195 49.6028C109.766 49.6028 117.578 50.8126 124.609 53.0308C130.664 47.3849 141.406 43.1504 149.219 44.1587C151.953 49.6028 152.344 63.7174 149.805 70.5731C156.055 78.2353 159.375 88.5189 159.375 99.0041C159.375 123.805 141.211 142.558 115.039 145.986C121.68 150.422 126.172 160.1 126.172 171.19V192.161C126.172 198.209 131.055 201.637 136.914 199.218C172.266 185.304 200 148.808 200 103.642C200 46.5784 155.078 0 99.8046 0C44.5312 0 0 46.5781 0 103.642C0 148.405 27.539 185.506 64.6483 199.42C69.9219 201.435 75 197.807 75 192.363V176.231C72.2656 177.441 68.75 178.247 65.625 178.247C52.7344 178.247 45.1171 170.989 39.6483 157.479C37.5 152.035 35.1562 148.808 30.664 148.204C28.3202 148.002 27.539 146.994 27.539 145.784C27.539 143.364 31.4452 141.549 35.3515 141.549C41.0156 141.549 45.8983 145.179 50.9765 152.64C54.8827 158.487 58.9844 161.108 63.8671 161.108C68.75 161.108 71.875 159.294 76.3671 154.656C79.6875 151.228 82.2265 148.204 84.5702 146.187Z" fill="#FFFAF5"/>
</svg>
