<svg width="200" height="200" viewBox="0 0 200 200" fill="none" xmlns="http://www.w3.org/2000/svg">
<path d="M58.0736 99.0983V99.13L55.4516 110.481C55.3101 111.124 54.6662 111.596 53.9248 111.596H50.7565C50.6426 111.596 50.5318 111.633 50.4405 111.701C50.3491 111.769 50.2821 111.864 50.2492 111.973C47.3272 121.862 43.3711 128.661 38.1467 132.742C33.7028 136.216 28.2248 137.835 20.9053 137.835C14.3297 137.835 9.89551 135.725 6.13453 131.561C1.16624 126.052 -0.887419 117.044 0.356483 106.187C2.59795 85.8026 13.1955 65.2336 33.6004 65.2336C39.8077 65.1777 44.6809 67.0878 48.0711 70.9033C51.6565 74.9353 53.476 81.0114 53.4858 88.9611C53.4769 89.3096 53.3319 89.641 53.0818 89.8846C52.8318 90.1282 52.4962 90.2648 52.1467 90.2653H37.1955C36.9335 90.2573 36.6846 90.1494 36.4999 89.9638C36.3153 89.7782 36.2089 89.5291 36.2028 89.2677C36.0809 83.7708 34.4467 81.0917 31.1979 81.0917C25.4662 81.0917 22.0858 88.854 20.2931 93.1586C17.7882 99.1689 16.5126 105.695 16.7638 112.197C16.8833 115.224 17.3711 119.482 20.2516 121.244C22.8053 122.809 26.4492 121.772 28.6565 120.04C30.8614 118.309 32.637 115.314 33.3833 112.581C33.4882 112.202 33.4955 111.907 33.3955 111.774C33.2906 111.64 33.0004 111.608 32.7784 111.608H28.9394C28.7362 111.609 28.5353 111.565 28.3508 111.48C28.1663 111.395 28.0026 111.271 27.8711 111.117C27.7703 110.996 27.6986 110.854 27.6618 110.701C27.625 110.548 27.624 110.389 27.6589 110.236L30.2833 98.8623C30.4126 98.2783 30.9418 97.8403 31.5931 97.76V97.7332H56.7882C56.8467 97.7332 56.9077 97.7332 56.9638 97.7454C57.6175 97.8281 58.0784 98.4364 58.0662 99.0983H58.0736Z" fill="#FFFAF5"/>
<path d="M101.448 86.0483C101.438 86.3948 101.292 86.7234 101.043 86.9646C100.793 87.2058 100.459 87.3406 100.112 87.3404H86.341C85.4386 87.3404 84.6849 86.6104 84.6849 85.7223C84.6849 81.7121 83.2947 79.7606 80.4508 79.7606C77.6069 79.7606 75.7727 81.5053 75.7191 84.5494C75.6581 87.9439 77.5825 91.0269 83.0605 96.3267C90.2727 103.077 93.163 109.058 93.024 116.961C92.7971 129.739 84.0874 138 70.8337 138C64.0654 138 58.8947 136.192 55.4557 132.63C51.9654 129.014 50.3654 123.704 50.6996 116.849C50.711 116.503 50.8572 116.175 51.1071 115.934C51.3571 115.693 51.6912 115.559 52.0386 115.56H66.2825C66.4811 115.563 66.6765 115.611 66.8545 115.699C67.0325 115.787 67.1886 115.913 67.3118 116.068C67.4194 116.197 67.4982 116.346 67.5428 116.508C67.5874 116.669 67.5968 116.838 67.5703 117.003C67.4118 119.475 67.8435 121.322 68.8191 122.344C69.4435 123.006 70.3142 123.342 71.3996 123.342C74.0313 123.342 75.5728 121.485 75.6313 118.256C75.6801 115.462 74.7947 113.012 69.9703 108.06C63.7386 101.987 58.1508 95.7111 58.324 85.8439C58.4264 80.1232 60.7045 74.8891 64.741 71.1077C69.0093 67.1121 74.8459 65 81.6215 65C88.4093 65.0487 93.5532 66.9783 96.9118 70.7402C100.092 74.3075 101.624 79.4564 101.453 86.0459L101.448 86.0483Z" fill="#FFFAF5"/>
<path d="M144.136 135.595L144.226 67.6271C144.229 67.4569 144.197 67.2878 144.133 67.13C144.07 66.9721 143.975 66.8285 143.855 66.7077C143.734 66.5868 143.591 66.4912 143.433 66.4264C143.276 66.3615 143.106 66.3288 142.936 66.3301H121.624C120.907 66.3301 120.592 66.9433 120.387 67.3521L89.5285 135.181V135.193L89.5163 135.208C89.1748 136.043 89.8236 136.936 90.7285 136.936H105.626C106.431 136.936 106.963 136.692 107.226 136.186L110.185 129.093C110.548 128.149 110.616 128.061 111.65 128.061H125.885C126.875 128.061 126.897 128.081 126.88 129.047L126.56 135.641C126.558 135.811 126.59 135.98 126.654 136.138C126.718 136.295 126.812 136.438 126.933 136.559C127.053 136.68 127.196 136.775 127.353 136.84C127.511 136.904 127.68 136.937 127.85 136.936H142.899C143.086 136.938 143.27 136.9 143.44 136.823C143.61 136.747 143.761 136.634 143.882 136.493C143.987 136.37 144.064 136.227 144.108 136.072C144.152 135.917 144.161 135.754 144.136 135.595ZM117.77 112.902C117.631 112.902 117.521 112.899 117.433 112.89C117.381 112.886 117.331 112.87 117.285 112.845C117.24 112.819 117.2 112.784 117.17 112.741C117.14 112.699 117.119 112.65 117.11 112.599C117.101 112.547 117.103 112.495 117.116 112.444C117.146 112.344 117.187 112.213 117.246 112.048L127.921 85.7019C128.014 85.4415 128.131 85.186 128.253 84.9378C128.426 84.585 128.636 84.5607 128.702 84.8235C128.758 85.0425 127.477 111.877 127.477 111.877C127.377 112.882 127.331 112.924 126.338 113.006L117.78 112.907H117.76L117.77 112.902Z" fill="#FFFAF5"/>
<path d="M174.501 66.3315H163.186C162.589 66.3315 161.918 66.6479 161.759 67.3584L146.015 135.562C145.981 135.716 145.982 135.877 146.019 136.03C146.056 136.184 146.129 136.327 146.23 136.448C146.361 136.602 146.525 136.726 146.709 136.811C146.893 136.896 147.093 136.94 147.296 136.94H161.437C162.196 136.94 162.718 136.567 162.859 135.922C162.859 135.922 164.574 128.214 164.576 128.189C164.698 127.588 164.489 127.121 163.947 126.839C163.691 126.707 163.437 126.576 163.186 126.442L160.735 125.172L158.296 123.902L157.352 123.413C157.276 123.374 157.212 123.315 157.168 123.242C157.124 123.168 157.101 123.084 157.103 122.999C157.106 122.873 157.159 122.753 157.249 122.665C157.339 122.577 157.46 122.528 157.586 122.527L165.337 122.561C167.654 122.573 169.974 122.41 172.254 121.992C188.303 119.035 198.962 106.211 199.269 88.762C199.53 73.87 191.198 66.3242 174.513 66.3242L174.501 66.3315ZM170.65 106.92H170.347C169.669 106.92 169.547 106.847 169.525 106.822C169.515 106.805 173.996 87.1779 173.998 87.1511C174.113 86.5842 174.108 86.2581 173.757 86.0659C173.308 85.8177 166.767 82.3769 166.767 82.3769C166.69 82.3372 166.627 82.2769 166.583 82.2029C166.54 82.1289 166.518 82.0442 166.52 81.9584C166.523 81.8334 166.575 81.7145 166.665 81.6273C166.755 81.54 166.875 81.4911 167.001 81.4912H177.345C180.564 81.5885 182.359 84.4623 182.274 89.3679C182.125 97.8651 178.076 106.62 170.65 106.922V106.92Z" fill="#FFFAF5"/>
</svg>
