<svg width="200" height="200" viewBox="0 0 200 200" fill="none" xmlns="http://www.w3.org/2000/svg">
<path d="M54.0625 159.363H52.1875L42.8125 149.988V148.113L57.1875 133.738H67.1875L68.5938 135.145V145.145L54.0625 159.363Z" fill="white"/>
<path d="M42.8125 52.6445V50.7695L52.1875 41.3945H54.0625L68.4375 55.7695V65.7695L67.1875 67.0195H57.1875L42.8125 52.6445Z" fill="white"/>
<path d="M125.781 128.895H112.031L110.938 127.801V95.6133C110.938 89.832 108.75 85.457 101.875 85.3008C98.2812 85.1445 94.2187 85.3008 90 85.457L89.375 86.082V127.645L88.2812 128.738H74.5313L73.4375 127.645V72.957L74.5313 71.8633H105.469C117.5 71.8633 127.188 81.5508 127.188 93.582V127.801L125.781 128.895Z" fill="#FFFAF5"/>
<path d="M55.9375 108.27H1.09375L0 107.176V93.4258L1.09375 92.332H55.9375L57.0312 93.4258V107.176L55.9375 108.27Z" fill="white"/>
<path d="M198.906 108.27H144.062L142.969 107.176V93.4258L144.062 92.332H198.906L200 93.4258V107.176L198.906 108.27Z" fill="white"/>
<path d="M92.0313 54.6758V13.4258L93.2813 12.332H107.031L108.125 13.4258V54.5195L107.031 55.6133H93.2813L92.0313 54.6758Z" fill="white"/>
<path d="M92.0313 187.176V146.082L93.125 144.988H106.875L107.969 146.082V187.176L106.875 188.27H93.125L92.0313 187.176Z" fill="white"/>
</svg>
