<svg width="200" height="200" viewBox="0 0 200 200" fill="none" xmlns="http://www.w3.org/2000/svg">
<path d="M117.859 99.3396C117.859 89.7954 109.864 82.0569 100 82.0569C90.1373 82.0569 82.1407 89.7954 82.1407 99.3396C82.1407 108.885 90.1373 116.623 100 116.623C109.864 116.623 117.859 108.885 117.859 99.3396Z" fill="#FFFAF5"/>
<path fill-rule="evenodd" clip-rule="evenodd" d="M158.003 67.2535C161.774 52.4226 166.515 24.9202 149.803 15.5961C133.169 6.31254 111.523 24.1015 100.093 34.7792C88.696 24.2079 66.442 6.49499 49.7442 15.8488C33.1167 25.1634 38.2443 52.2098 42.0993 67.1337C26.5887 71.3968 0 80.5791 0 99.3396C0 118.047 26.5611 128.037 41.9799 132.296C38.1105 147.303 33.2397 173.963 49.8885 183.257C66.6487 192.609 88.8333 175.317 100.369 164.523C111.873 175.263 133.311 192.668 149.948 183.348C166.637 173.998 162.291 146.865 158.435 131.854C173.382 127.586 200 117.813 200 99.3396C200 80.7594 173.269 71.5026 158.003 67.2535ZM156.108 123.9C153.577 116.145 150.16 107.899 145.981 99.3809C149.97 91.0636 153.254 82.9239 155.715 75.2194C166.906 78.3594 191.457 85.5356 191.457 99.3396C191.457 113.273 167.897 120.517 156.108 123.9ZM145.667 176.192C133.253 183.145 114.814 166.502 106.319 158.592C111.955 152.627 117.587 145.692 123.083 137.992C132.753 137.162 141.887 135.805 150.171 133.952C152.884 144.569 158.135 169.208 145.667 176.192ZM54.1575 176.093C41.7429 169.166 47.4172 145.376 50.2638 134.322C58.4556 136.076 67.524 137.337 77.216 138.098C82.7487 145.632 88.544 152.558 94.384 158.624C87.1687 165.378 66.63 183.052 54.1575 176.093ZM8.54327 99.3396C8.54327 85.3539 32.9471 78.2296 44.3936 75.0977C46.8967 82.9752 50.1797 91.212 54.1415 99.5413C50.1283 107.994 46.7985 116.361 44.2723 124.332C33.3579 121.309 8.54327 113.334 8.54327 99.3396ZM54.0247 23.0043C66.49 16.0219 85.8313 33.0269 94.106 40.6809C88.296 46.7186 82.554 53.5924 77.0687 61.084C67.6627 61.9277 58.6583 63.2824 50.3806 65.0976C47.275 53.0609 41.5728 29.9792 54.0247 23.0043ZM129.195 70.0707C135.577 70.8499 141.691 71.8865 147.431 73.1548C145.708 78.5005 143.56 84.0904 141.03 89.8206C137.363 83.087 133.426 76.4883 129.195 70.0707ZM100.095 46.5893C104.036 50.7204 107.983 55.3338 111.865 60.3388C103.99 59.9781 96.102 59.9768 88.2267 60.3335C92.1127 55.3749 96.0933 50.7684 100.095 46.5893ZM59.0433 89.8147C56.5553 84.1043 54.4265 78.4898 52.6881 73.0676C58.3945 71.832 64.48 70.8219 70.82 70.0554C66.5773 76.4591 62.6473 83.055 59.0433 89.8147ZM71.002 129.214C64.4527 128.507 58.2751 127.548 52.5704 126.346C54.3363 120.829 56.5119 115.093 59.0531 109.26C62.7067 116.09 66.6967 122.75 71.002 129.214ZM100.332 152.674C96.2827 148.446 92.2433 143.769 88.2987 138.738C96.2187 139.039 104.154 139.04 112.073 138.698C108.179 143.82 104.246 148.504 100.332 152.674ZM141.111 108.963C143.785 114.86 146.038 120.564 147.828 125.988C142.029 127.269 135.768 128.3 129.171 129.066C133.433 122.527 137.433 115.826 141.111 108.963ZM118.315 130.068C106.201 130.906 94.0107 130.897 81.892 130.137C75.006 120.403 68.876 110.166 63.5847 99.5386C68.8507 88.933 74.936 78.716 81.7893 68.9974C93.9167 68.1105 106.119 68.1078 118.246 69.0028C125.041 78.7207 131.117 88.9111 136.505 99.4208C131.181 110.021 125.063 120.259 118.315 130.068ZM145.535 22.7585C158.004 29.718 152.454 54.4352 149.73 65.1834C141.433 63.3303 132.422 61.9517 122.989 61.0947C117.493 53.5222 111.799 46.6364 106.083 40.6766C114.463 32.8578 133.187 15.8671 145.535 22.7585Z" fill="#FFFAF5"/>
</svg>
