<svg width="200" height="200" viewBox="0 0 200 200" fill="none" xmlns="http://www.w3.org/2000/svg">
<path d="M192.927 178.811L151.743 198.756C146.976 201.064 141.279 200.09 137.538 196.327L2.71707 72.6906C-0.909271 69.3651 -0.905102 63.6227 2.72607 60.3026L13.7387 50.2331C16.7073 47.5187 21.1781 47.3189 24.3743 49.7576L186.73 173.637C192.177 177.793 200 173.886 200 167.01V167.491C200 172.317 197.251 176.717 192.927 178.811Z" fill="#D7D7D7"/>
<path d="M192.927 21.1842L151.743 1.24008C146.976 -1.06845 141.279 -0.0946603 137.538 3.66817L2.71707 127.305C-0.909271 130.63 -0.905102 136.373 2.72607 139.693L13.7387 149.762C16.7073 152.477 21.1781 152.677 24.3743 150.238L186.73 26.3583C192.177 22.2022 200 26.1096 200 32.986V32.5051C200 27.6783 197.251 23.2782 192.927 21.1842Z" fill="#EDEDED"/>
<path d="M151.744 198.762C146.976 201.069 141.279 200.093 137.537 196.33C142.147 200.966 150.03 197.682 150.03 191.125V8.8745C150.03 2.31722 142.147 -0.966697 137.537 3.66999C141.279 -0.0931783 146.976 -1.06834 151.744 1.23815L192.921 21.1549C197.248 23.2477 200 27.6494 200 32.4783V167.522C200 172.351 197.248 176.753 192.921 178.845L151.744 198.762Z" fill="#FFFAF5"/>
</svg>
